<svg width="24" height="24" viewBox="0 0 24 24" fill="none" xmlns="http://www.w3.org/2000/svg">
<path d="M7.43399 17.156C6.73199 17.156 6.07766 17.0433 5.47099 16.818C4.87299 16.584 4.35299 16.2547 3.91099 15.83C3.46899 15.4053 3.12232 14.907 2.87099 14.335C2.62832 13.763 2.50699 13.1347 2.50699 12.45C2.50699 11.7653 2.62832 11.137 2.87099 10.565C3.12232 9.993 3.46899 9.49467 3.91099 9.07C4.36166 8.64533 4.88599 8.32033 5.48399 8.095C6.08199 7.861 6.73632 7.744 7.44699 7.744C8.23566 7.744 8.94632 7.88267 9.57899 8.16C10.2203 8.42867 10.7577 8.82733 11.191 9.356L9.83899 10.604C9.52699 10.2487 9.18032 9.98433 8.79899 9.811C8.41766 9.629 8.00166 9.538 7.55099 9.538C7.12632 9.538 6.73632 9.60733 6.38099 9.746C6.02566 9.88467 5.71799 10.084 5.45799 10.344C5.19799 10.604 4.99432 10.9117 4.84699 11.267C4.70832 11.6223 4.63899 12.0167 4.63899 12.45C4.63899 12.8833 4.70832 13.2777 4.84699 13.633C4.99432 13.9883 5.19799 14.296 5.45799 14.556C5.71799 14.816 6.02566 15.0153 6.38099 15.154C6.73632 15.2927 7.12632 15.362 7.55099 15.362C8.00166 15.362 8.41766 15.2753 8.79899 15.102C9.18032 14.92 9.52699 14.647 9.83899 14.283L11.191 15.531C10.7577 16.0597 10.2203 16.4627 9.57899 16.74C8.94632 17.0173 8.23132 17.156 7.43399 17.156ZM15.3051 17L11.3791 7.9H13.6541L17.0861 15.96H15.7471L19.2311 7.9H21.3241L17.3851 17H15.3051Z" fill="#FFB800"/>
</svg>
